<svg width="71" height="143" viewBox="0 0 71 143" fill="none" xmlns="http://www.w3.org/2000/svg">
<g opacity="0.2">
<ellipse cx="67.263" cy="79.0286" rx="3.29712" ry="3.08414" transform="rotate(90 67.263 79.0286)" fill="#397096"/>
<ellipse cx="67.2635" cy="3.29712" rx="3.29712" ry="3.08414" transform="rotate(90 67.2635 3.29712)" fill="#78ACC6"/>
<ellipse cx="53.0951" cy="3.29712" rx="3.29712" ry="3.08414" transform="rotate(90 53.0951 3.29712)" fill="#78ACC6"/>
<ellipse cx="38.9266" cy="3.29712" rx="3.29712" ry="3.08414" transform="rotate(90 38.9266 3.29712)" fill="#78ACC6"/>
<ellipse cx="24.7581" cy="3.29712" rx="3.29712" ry="3.08414" transform="rotate(90 24.7581 3.29712)" fill="#78ACC6"/>
<ellipse cx="10.5897" cy="3.29712" rx="3.29712" ry="3.08414" transform="rotate(90 10.5897 3.29712)" fill="#78ACC6"/>
<ellipse cx="67.2635" cy="18.4431" rx="3.29712" ry="3.08414" transform="rotate(90 67.2635 18.4431)" fill="#78ACC6"/>
<ellipse cx="53.0951" cy="18.4431" rx="3.29712" ry="3.08414" transform="rotate(90 53.0951 18.4431)" fill="#78ACC6"/>
<ellipse cx="38.9266" cy="18.4431" rx="3.29712" ry="3.08414" transform="rotate(90 38.9266 18.4431)" fill="#78ACC6"/>
<ellipse cx="24.7581" cy="18.4431" rx="3.29712" ry="3.08414" transform="rotate(90 24.7581 18.4431)" fill="#78ACC6"/>
<ellipse cx="10.5897" cy="18.4431" rx="3.29712" ry="3.08414" transform="rotate(90 10.5897 18.4431)" fill="#78ACC6"/>
<ellipse cx="67.2635" cy="33.5896" rx="3.29712" ry="3.08414" transform="rotate(90 67.2635 33.5896)" fill="#78ACC6"/>
<ellipse cx="53.0951" cy="33.5896" rx="3.29712" ry="3.08414" transform="rotate(90 53.0951 33.5896)" fill="#78ACC6"/>
<ellipse cx="38.9266" cy="33.5896" rx="3.29712" ry="3.08414" transform="rotate(90 38.9266 33.5896)" fill="#78ACC6"/>
<ellipse cx="24.7581" cy="33.5896" rx="3.29712" ry="3.08414" transform="rotate(90 24.7581 33.5896)" fill="#78ACC6"/>
<ellipse cx="10.5897" cy="33.5896" rx="3.29712" ry="3.08414" transform="rotate(90 10.5897 33.5896)" fill="#78ACC6"/>
<ellipse cx="67.2635" cy="48.7356" rx="3.29712" ry="3.08414" transform="rotate(90 67.2635 48.7356)" fill="#78ACC6"/>
<ellipse cx="53.0951" cy="48.7356" rx="3.29712" ry="3.08414" transform="rotate(90 53.0951 48.7356)" fill="#78ACC6"/>
<ellipse cx="38.9266" cy="48.7356" rx="3.29712" ry="3.08414" transform="rotate(90 38.9266 48.7356)" fill="#78ACC6"/>
<ellipse cx="24.7581" cy="48.7356" rx="3.29712" ry="3.08414" transform="rotate(90 24.7581 48.7356)" fill="#78ACC6"/>
<ellipse cx="10.5897" cy="48.7356" rx="3.29712" ry="3.08414" transform="rotate(90 10.5897 48.7356)" fill="#78ACC6"/>
<ellipse cx="67.2635" cy="63.8823" rx="3.29736" ry="3.08414" transform="rotate(90 67.2635 63.8823)" fill="#397096"/>
<ellipse cx="53.0951" cy="63.8823" rx="3.29736" ry="3.08414" transform="rotate(90 53.0951 63.8823)" fill="#397096"/>
<ellipse cx="38.9266" cy="63.8823" rx="3.29736" ry="3.08414" transform="rotate(90 38.9266 63.8823)" fill="#78ACC6"/>
<ellipse cx="24.7581" cy="63.8823" rx="3.29736" ry="3.08414" transform="rotate(90 24.7581 63.8823)" fill="#78ACC6"/>
<ellipse cx="10.5897" cy="63.8823" rx="3.29736" ry="3.08414" transform="rotate(90 10.5897 63.8823)" fill="#78ACC6"/>
<ellipse cx="53.0951" cy="79.0286" rx="3.29712" ry="3.08414" transform="rotate(90 53.0951 79.0286)" fill="#397096"/>
<ellipse cx="38.9266" cy="79.0286" rx="3.29712" ry="3.08414" transform="rotate(90 38.9266 79.0286)" fill="#397096"/>
<ellipse cx="24.7581" cy="79.0286" rx="3.29712" ry="3.08414" transform="rotate(90 24.7581 79.0286)" fill="#397096"/>
<ellipse cx="10.5897" cy="79.0286" rx="3.29712" ry="3.08414" transform="rotate(90 10.5897 79.0286)" fill="#397096"/>
<ellipse cx="67.263" cy="94.1746" rx="3.29712" ry="3.08414" transform="rotate(90 67.263 94.1746)" fill="#397096"/>
<ellipse cx="53.0951" cy="94.1746" rx="3.29712" ry="3.08414" transform="rotate(90 53.0951 94.1746)" fill="#397096"/>
<ellipse cx="38.9266" cy="94.1746" rx="3.29712" ry="3.08414" transform="rotate(90 38.9266 94.1746)" fill="#397096"/>
<ellipse cx="24.7581" cy="94.1746" rx="3.29712" ry="3.08414" transform="rotate(90 24.7581 94.1746)" fill="#397096"/>
<ellipse cx="10.5897" cy="94.1746" rx="3.29712" ry="3.08414" transform="rotate(90 10.5897 94.1746)" fill="#397096"/>
<ellipse cx="67.263" cy="109.321" rx="3.29712" ry="3.08414" transform="rotate(90 67.263 109.321)" fill="#397096"/>
<ellipse cx="53.0951" cy="109.321" rx="3.29712" ry="3.08414" transform="rotate(90 53.0951 109.321)" fill="#397096"/>
<ellipse cx="38.9266" cy="109.321" rx="3.29712" ry="3.08414" transform="rotate(90 38.9266 109.321)" fill="#397096"/>
<ellipse cx="24.7581" cy="109.321" rx="3.29712" ry="3.08414" transform="rotate(90 24.7581 109.321)" fill="#397096"/>
<ellipse cx="10.5897" cy="109.321" rx="3.29712" ry="3.08414" transform="rotate(90 10.5897 109.321)" fill="#397096"/>
<ellipse cx="67.263" cy="124.467" rx="3.29712" ry="3.08414" transform="rotate(90 67.263 124.467)" fill="#397096"/>
<ellipse cx="53.0951" cy="124.467" rx="3.29712" ry="3.08414" transform="rotate(90 53.0951 124.467)" fill="#397096"/>
<ellipse cx="38.9266" cy="124.467" rx="3.29712" ry="3.08414" transform="rotate(90 38.9266 124.467)" fill="#397096"/>
<ellipse cx="24.7581" cy="124.467" rx="3.29712" ry="3.08414" transform="rotate(90 24.7581 124.467)" fill="#397096"/>
<ellipse cx="10.5897" cy="124.467" rx="3.29712" ry="3.08414" transform="rotate(90 10.5897 124.467)" fill="#397096"/>
<ellipse cx="67.263" cy="139.613" rx="3.29712" ry="3.08414" transform="rotate(90 67.263 139.613)" fill="#397096"/>
<ellipse cx="53.0951" cy="139.613" rx="3.29712" ry="3.08414" transform="rotate(90 53.0951 139.613)" fill="#397096"/>
<ellipse cx="38.9266" cy="139.613" rx="3.29712" ry="3.08414" transform="rotate(90 38.9266 139.613)" fill="#397096"/>
<ellipse cx="24.7581" cy="139.613" rx="3.29712" ry="3.08414" transform="rotate(90 24.7581 139.613)" fill="#397096"/>
<ellipse cx="10.5897" cy="139.613" rx="3.29712" ry="3.08414" transform="rotate(90 10.5897 139.613)" fill="#397096"/>
</g>
</svg>
