<?xml version="1.0" encoding="UTF-8"?>
<svg enable-background="new 0 0 444 136.5" version="1.1" viewBox="0 0 444 136.5" xml:space="preserve" xmlns="http://www.w3.org/2000/svg">
<style type="text/css">
	.st0{fill:#9C9C9C;}
	.st1{fill:#44A9F8;}
	.st2{fill:#29394C;}
	.st3{fill:none;}
</style>

	<polygon class="st0" points="223.4 110.4 218.8 124.2 216.7 124.2 212.9 113.2 209.1 124.2 207 124.2 202.4 110.4 204.4 110.4 208.2 121.6 212.1 110.4 213.9 110.4 217.7 121.7 221.5 110.4"/>
	<path class="st0" d="m234.2 119.6h-8.5c0.1 0.9 0.5 1.7 1.2 2.2 0.7 0.6 1.6 0.8 2.6 0.8 1.3 0 2.3-0.4 3-1.3l1 1.2c-0.5 0.6-1.1 1-1.8 1.3s-1.5 0.4-2.4 0.4c-1.1 0-2.1-0.2-2.9-0.7s-1.5-1.1-2-1.9-0.7-1.7-0.7-2.8c0-1 0.2-1.9 0.7-2.8 0.5-0.8 1.1-1.5 1.9-1.9 0.8-0.5 1.7-0.7 2.7-0.7s1.9 0.2 2.7 0.7 1.4 1.1 1.8 1.9 0.7 1.8 0.7 2.8v0.8m-7.4-3.5c-0.6 0.6-1 1.3-1.1 2.2h6.7c-0.1-0.9-0.5-1.6-1.1-2.2s-1.4-0.8-2.3-0.8c-0.9-0.1-1.6 0.2-2.2 0.8"/>
	<path class="st0" d="m244.9 123.5c-1.1-0.6-2-1.5-2.6-2.5-0.6-1.1-0.9-2.3-0.9-3.6s0.3-2.6 0.9-3.6c0.6-1.1 1.5-1.9 2.6-2.5s2.4-0.9 3.8-0.9c1.1 0 2.1 0.2 3 0.5 0.9 0.4 1.7 0.9 2.3 1.6l-1.3 1.2c-1-1.1-2.3-1.6-3.9-1.6-1 0-2 0.2-2.8 0.7s-1.5 1.1-1.9 1.9c-0.5 0.8-0.7 1.7-0.7 2.7s0.2 1.9 0.7 2.7 1.1 1.4 1.9 1.9 1.8 0.7 2.8 0.7c1.5 0 2.8-0.6 3.9-1.7l1.3 1.2c-0.6 0.7-1.4 1.3-2.3 1.6-0.9 0.4-1.9 0.6-3 0.6-1.4 0-2.7-0.3-3.8-0.9"/>
	<path class="st0" d="m259.8 114.1c0.6-0.3 1.4-0.5 2.4-0.5v1.8h-0.4c-1 0-1.8 0.3-2.4 0.9s-0.9 1.5-0.9 2.6v5.2h-1.9v-10.5h1.8v1.8c0.3-0.5 0.7-1 1.4-1.3"/>
	<path class="st0" d="m273.8 119.6h-8.5c0.1 0.9 0.5 1.7 1.2 2.2 0.7 0.6 1.6 0.8 2.6 0.8 1.3 0 2.3-0.4 3-1.3l1 1.2c-0.5 0.6-1.1 1-1.8 1.3s-1.5 0.4-2.4 0.4c-1.1 0-2.1-0.2-2.9-0.7-0.9-0.5-1.5-1.1-2-1.9s-0.7-1.7-0.7-2.8c0-1 0.2-1.9 0.7-2.8 0.5-0.8 1.1-1.5 1.9-1.9 0.8-0.5 1.7-0.7 2.7-0.7s1.9 0.2 2.7 0.7 1.4 1.1 1.8 1.9 0.7 1.8 0.7 2.8c0.1 0.4 0 0.6 0 0.8m-7.4-3.5c-0.6 0.6-1 1.3-1.1 2.2h6.7c-0.1-0.9-0.5-1.6-1.1-2.2s-1.4-0.8-2.3-0.8c-0.8-0.1-1.6 0.2-2.2 0.8"/>
	<path class="st0" d="m283.3 114.7c0.8 0.7 1.2 1.8 1.2 3.2v6.3h-1.8v-1.4c-0.3 0.5-0.8 0.9-1.4 1.1-0.6 0.3-1.3 0.4-2.1 0.4-1.2 0-2.1-0.3-2.8-0.8-0.7-0.6-1.1-1.3-1.1-2.2s0.3-1.7 1-2.2c0.7-0.6 1.7-0.8 3.2-0.8h3v-0.4c0-0.8-0.2-1.4-0.7-1.9-0.5-0.4-1.2-0.7-2.1-0.7-0.6 0-1.2 0.1-1.8 0.3s-1.1 0.5-1.5 0.8l-0.8-1.4c0.5-0.4 1.2-0.8 1.9-1 0.8-0.2 1.6-0.3 2.4-0.3 1.6-0.1 2.7 0.3 3.4 1m-1.8 7.7c0.5-0.3 0.9-0.8 1.1-1.4v-1.5h-2.9c-1.6 0-2.4 0.5-2.4 1.6 0 0.5 0.2 0.9 0.6 1.2s1 0.5 1.7 0.5c0.7 0.1 1.3-0.1 1.9-0.4"/>
	<path class="st0" d="m293.9 123.6c-0.3 0.2-0.6 0.4-1 0.5s-0.8 0.2-1.3 0.2c-1.1 0-1.9-0.3-2.5-0.8-0.6-0.6-0.9-1.4-0.9-2.4v-5.8h-1.8v-1.6h1.8v-2.3h1.9v2.3h3v1.6h-3v5.7c0 0.6 0.1 1 0.4 1.3s0.7 0.5 1.2 0.5c0.6 0 1.1-0.2 1.5-0.5l0.7 1.3z"/>
	<path class="st0" d="m305.3 119.6h-8.5c0.1 0.9 0.5 1.7 1.2 2.2 0.7 0.6 1.6 0.8 2.6 0.8 1.3 0 2.3-0.4 3-1.3l1 1.2c-0.5 0.6-1.1 1-1.8 1.3s-1.5 0.4-2.4 0.4c-1.1 0-2.1-0.2-2.9-0.7s-1.5-1.1-2-1.9-0.7-1.7-0.7-2.8c0-1 0.2-1.9 0.7-2.8 0.5-0.8 1.1-1.5 1.9-1.9 0.8-0.5 1.7-0.7 2.7-0.7s1.9 0.2 2.7 0.7 1.4 1.1 1.8 1.9 0.7 1.8 0.7 2.8v0.8m-7.4-3.5c-0.6 0.6-1 1.3-1.1 2.2h6.7c-0.1-0.9-0.5-1.6-1.1-2.2s-1.4-0.8-2.3-0.8c-0.9-0.1-1.6 0.2-2.2 0.8"/>
	<path class="st0" d="m323.2 111.7c1 0.9 1.5 2 1.5 3.5s-0.5 2.7-1.5 3.5c-1 0.9-2.4 1.3-4.2 1.3h-3.4v4.2h-2v-13.9h5.4c1.8 0.1 3.2 0.5 4.2 1.4m-1.4 5.8c0.7-0.5 1-1.3 1-2.3s-0.3-1.8-1-2.3-1.6-0.8-2.9-0.8h-3.4v6.2h3.4c1.3 0 2.2-0.3 2.9-0.8"/>
	<path class="st0" d="m330.5 114.1c0.6-0.3 1.4-0.5 2.4-0.5v1.8h-0.4c-1 0-1.8 0.3-2.4 0.9s-0.9 1.5-0.9 2.6v5.2h-1.9v-10.5h1.8v1.8c0.3-0.5 0.8-1 1.4-1.3"/>
	<path class="st0" d="m336.8 123.6c-0.8-0.5-1.5-1.1-1.9-1.9-0.5-0.8-0.7-1.7-0.7-2.8 0-1 0.2-2 0.7-2.8s1.1-1.4 1.9-1.9 1.8-0.7 2.8-0.7 2 0.2 2.8 0.7 1.5 1.1 1.9 1.9c0.5 0.8 0.7 1.7 0.7 2.8 0 1-0.2 1.9-0.7 2.8-0.5 0.8-1.1 1.4-1.9 1.9s-1.8 0.7-2.8 0.7c-1.1 0-2-0.2-2.8-0.7m4.6-1.4c0.5-0.3 1-0.7 1.3-1.3s0.5-1.2 0.5-1.9-0.2-1.4-0.5-1.9c-0.3-0.6-0.7-1-1.3-1.3-0.5-0.3-1.1-0.5-1.8-0.5s-1.3 0.2-1.8 0.5-1 0.7-1.3 1.3-0.5 1.2-0.5 1.9 0.2 1.4 0.5 1.9c0.3 0.6 0.7 1 1.3 1.3 0.5 0.3 1.1 0.5 1.8 0.5s1.3-0.2 1.8-0.5"/>
	<path class="st0" d="m349.8 112.8v0.9h3v1.6h-3v8.9h-1.9v-8.9h-1.8v-1.6h1.8v-0.9c0-1 0.3-1.9 0.9-2.5s1.5-0.9 2.6-0.9c0.4 0 0.8 0.1 1.2 0.2s0.7 0.3 0.9 0.5l-0.6 1.4c-0.4-0.3-0.9-0.5-1.5-0.5-1 0-1.6 0.6-1.6 1.8"/>
	<path class="st0" d="m363.9 119.6h-8.5c0.1 0.9 0.5 1.7 1.2 2.2 0.7 0.6 1.6 0.8 2.6 0.8 1.3 0 2.3-0.4 3-1.3l1 1.2c-0.5 0.6-1.1 1-1.8 1.3s-1.5 0.4-2.4 0.4c-1.1 0-2.1-0.2-2.9-0.7s-1.5-1.1-2-1.9-0.7-1.7-0.7-2.8c0-1 0.2-1.9 0.7-2.8 0.5-0.8 1.1-1.5 1.9-1.9 0.8-0.5 1.7-0.7 2.7-0.7s1.9 0.2 2.7 0.7 1.4 1.1 1.8 1.9 0.7 1.8 0.7 2.8c0.1 0.4 0.1 0.6 0 0.8m-7.4-3.5c-0.6 0.6-1 1.3-1.1 2.2h6.7c-0.1-0.9-0.5-1.6-1.1-2.2s-1.4-0.8-2.3-0.8c-0.8-0.1-1.6 0.2-2.2 0.8"/>
	<path class="st0" d="m367.1 124c-0.8-0.2-1.4-0.5-1.9-0.9l0.8-1.5c0.5 0.3 1 0.6 1.7 0.8s1.3 0.3 2 0.3c1.7 0 2.5-0.5 2.5-1.4 0-0.3-0.1-0.6-0.3-0.8s-0.5-0.3-0.8-0.4-0.8-0.2-1.4-0.3c-0.8-0.1-1.5-0.3-2.1-0.5-0.5-0.2-1-0.5-1.4-0.9s-0.6-1-0.6-1.7c0-0.9 0.4-1.7 1.2-2.3s1.9-0.9 3.2-0.9c0.7 0 1.4 0.1 2.1 0.3s1.3 0.4 1.7 0.7l-0.8 1.5c-0.9-0.6-1.9-0.8-3-0.8-0.8 0-1.4 0.1-1.8 0.4s-0.6 0.6-0.6 1c0 0.3 0.1 0.6 0.4 0.8 0.2 0.2 0.5 0.3 0.9 0.4 0.3 0.1 0.8 0.2 1.5 0.3 0.8 0.1 1.5 0.3 2 0.5s1 0.4 1.3 0.8c0.4 0.4 0.6 0.9 0.6 1.7 0 0.9-0.4 1.7-1.2 2.3s-1.9 0.8-3.3 0.8c-1.1 0.1-1.9 0-2.7-0.2"/>
	<path class="st0" d="m377 124c-0.8-0.2-1.4-0.5-1.9-0.9l0.8-1.5c0.5 0.3 1 0.6 1.7 0.8s1.3 0.3 2 0.3c1.7 0 2.5-0.5 2.5-1.4 0-0.3-0.1-0.6-0.3-0.8s-0.5-0.3-0.8-0.4-0.8-0.2-1.4-0.3c-0.8-0.1-1.5-0.3-2.1-0.5-0.5-0.2-1-0.5-1.4-0.9s-0.6-1-0.6-1.7c0-0.9 0.4-1.7 1.2-2.3s1.9-0.9 3.2-0.9c0.7 0 1.4 0.1 2.1 0.3s1.3 0.4 1.7 0.7l-0.8 1.5c-0.9-0.6-1.9-0.8-3-0.8-0.8 0-1.4 0.1-1.8 0.4s-0.6 0.6-0.6 1c0 0.3 0.1 0.6 0.4 0.8 0.2 0.2 0.5 0.3 0.9 0.4 0.3 0.1 0.8 0.2 1.5 0.3 0.8 0.1 1.5 0.3 2 0.5s1 0.4 1.3 0.8c0.4 0.4 0.6 0.9 0.6 1.7 0 0.9-0.4 1.7-1.2 2.3s-1.9 0.8-3.3 0.8c-1 0.1-1.9 0-2.7-0.2"/>
	<path class="st0" d="m386.5 111.4c-0.2-0.2-0.4-0.5-0.4-0.9s0.1-0.6 0.4-0.9c0.2-0.2 0.6-0.4 0.9-0.4 0.4 0 0.7 0.1 0.9 0.3s0.4 0.5 0.4 0.9-0.1 0.7-0.4 0.9c-0.2 0.2-0.6 0.4-0.9 0.4-0.4 0-0.7-0.1-0.9-0.3m-0.1 2.3h1.9v10.5h-1.9v-10.5z"/>
	<path class="st0" d="m393.6 123.6c-0.8-0.5-1.5-1.1-1.9-1.9-0.5-0.8-0.7-1.7-0.7-2.8 0-1 0.2-2 0.7-2.8s1.1-1.4 1.9-1.9 1.8-0.7 2.8-0.7 2 0.2 2.8 0.7 1.5 1.1 1.9 1.9c0.5 0.8 0.7 1.7 0.7 2.8 0 1-0.2 1.9-0.7 2.8-0.5 0.8-1.1 1.4-1.9 1.9s-1.8 0.7-2.8 0.7-1.9-0.2-2.8-0.7m4.7-1.4c0.5-0.3 1-0.7 1.3-1.3s0.5-1.2 0.5-1.9-0.2-1.4-0.5-1.9c-0.3-0.6-0.7-1-1.3-1.3-0.5-0.3-1.1-0.5-1.8-0.5s-1.3 0.2-1.8 0.5-1 0.7-1.3 1.3-0.5 1.2-0.5 1.9 0.2 1.4 0.5 1.9c0.3 0.6 0.7 1 1.3 1.3 0.5 0.3 1.1 0.5 1.8 0.5s1.2-0.2 1.8-0.5"/>
	<path class="st0" d="m413.3 114.8c0.8 0.8 1.2 1.9 1.2 3.4v6h-1.9v-5.8c0-1-0.2-1.8-0.7-2.3s-1.2-0.8-2.1-0.8c-1 0-1.8 0.3-2.4 0.9s-0.9 1.5-0.9 2.6v5.4h-1.9v-10.5h1.8v1.6c0.4-0.5 0.9-1 1.6-1.2 0.7-0.3 1.4-0.4 2.2-0.4 1.2-0.1 2.3 0.3 3.1 1.1"/>
	<path class="st0" d="m425.1 114.7c0.8 0.7 1.2 1.8 1.2 3.2v6.3h-1.8v-1.4c-0.3 0.5-0.8 0.9-1.4 1.1-0.6 0.3-1.3 0.4-2.1 0.4-1.2 0-2.1-0.3-2.8-0.8-0.7-0.6-1.1-1.3-1.1-2.2s0.3-1.7 1-2.2c0.7-0.6 1.7-0.8 3.2-0.8h3v-0.4c0-0.8-0.2-1.4-0.7-1.9-0.5-0.4-1.2-0.7-2.1-0.7-0.6 0-1.2 0.1-1.8 0.3s-1.1 0.5-1.5 0.8l-0.8-1.4c0.5-0.4 1.2-0.8 1.9-1 0.8-0.2 1.6-0.3 2.4-0.3 1.6-0.1 2.7 0.3 3.4 1m-1.8 7.7c0.5-0.3 0.9-0.8 1.1-1.4v-1.5h-2.9c-1.6 0-2.4 0.5-2.4 1.6 0 0.5 0.2 0.9 0.6 1.2s1 0.5 1.7 0.5c0.7 0.1 1.3-0.1 1.9-0.4"/>
	<rect class="st0" x="429.8" y="109.5" width="1.9" height="14.7"/>
	<path class="st0" d="m435.9 124c-0.8-0.2-1.4-0.5-1.9-0.9l0.8-1.5c0.5 0.3 1 0.6 1.7 0.8s1.3 0.3 2 0.3c1.7 0 2.5-0.5 2.5-1.4 0-0.3-0.1-0.6-0.3-0.8s-0.5-0.3-0.8-0.4-0.8-0.2-1.4-0.3c-0.8-0.1-1.5-0.3-2.1-0.5-0.5-0.2-1-0.5-1.4-0.9s-0.6-1-0.6-1.7c0-0.9 0.4-1.7 1.2-2.3s1.9-0.9 3.2-0.9c0.7 0 1.4 0.1 2.1 0.3s1.3 0.4 1.7 0.7l-0.8 1.5c-0.9-0.6-1.9-0.8-3-0.8-0.8 0-1.4 0.1-1.8 0.4s-0.6 0.6-0.6 1c0 0.3 0.1 0.6 0.4 0.8 0.2 0.2 0.5 0.3 0.9 0.4 0.3 0.1 0.8 0.2 1.5 0.3 0.8 0.1 1.5 0.3 2 0.5s1 0.4 1.3 0.8c0.4 0.4 0.6 0.9 0.6 1.7 0 0.9-0.4 1.7-1.2 2.3s-1.9 0.8-3.3 0.8c-1.1 0.1-1.9 0-2.7-0.2"/>
	<path class="st1" d="M89.9,0L0,47.8l35.1,17.9v43.6l54.8,27.2l54.9-27.2V65.8l35.1-17.9L89.9,0z M127.9,98.8L90,117.7h0.1l-38-18.8   V74.4L90,93.8l37.9-19.3V98.8z M89.9,74.7L37.2,47.9L89.9,19l52.7,28.9L89.9,74.7z"/>
	<path class="st2" d="m235.3 56.3c-0.3 0.5-0.7 0.9-1.1 1.3-0.4 0.3-1 0.4-1.5 0.4-0.6 0-1.3-0.2-1.8-0.5l-2.1-1.2c-0.9-0.4-1.8-0.9-2.8-1.2-1.1-0.4-2.3-0.6-3.5-0.5-2.3 0-4 0.5-5.1 1.4-1.1 1-1.8 2.4-1.7 4 0 1 0.3 1.9 1 2.6 0.8 0.8 1.6 1.4 2.6 1.8 1.2 0.6 2.5 1 3.8 1.4 1.4 0.4 2.8 0.9 4.3 1.4 1.4 0.5 2.9 1.1 4.3 1.8s2.6 1.6 3.8 2.7c1.1 1.1 2 2.4 2.6 4 0.7 1.8 1.1 3.7 1 5.6 0 2.3-0.4 4.6-1.3 6.8-0.8 2.1-2.1 4-3.6 5.5-1.7 1.6-3.7 2.9-5.9 3.7-2.6 0.9-5.3 1.4-8 1.3-1.7 0-3.3-0.2-5-0.5s-3.3-0.8-4.9-1.4-3.1-1.3-4.5-2.2c-1.3-0.8-2.6-1.8-3.6-2.8l3.7-5.7c0.3-0.4 0.7-0.8 1.1-1 0.4-0.3 1-0.4 1.5-0.4 0.8 0 1.5 0.3 2.2 0.7 0.8 0.4 1.6 0.9 2.5 1.5 1 0.6 2.1 1.1 3.2 1.5 1.4 0.5 2.8 0.7 4.3 0.7 2.2 0 4-0.5 5.1-1.4 1.3-0.9 1.8-2.5 1.8-4.6 0.1-1.1-0.3-2.1-1-3-0.8-0.8-1.6-1.4-2.6-1.9-1.2-0.6-2.4-1-3.7-1.3-1.4-0.4-2.8-0.8-4.3-1.3-1.4-0.5-2.9-1.1-4.3-1.8s-2.6-1.6-3.7-2.7c-1.1-1.2-2.1-2.6-2.6-4.2-0.8-1.9-1.1-4.1-1-6.2 0-2 0.4-4 1.2-5.8 0.8-1.9 2-3.6 3.5-5 1.6-1.5 3.6-2.7 5.6-3.5 2.4-0.9 5.1-1.4 7.7-1.3 1.6 0 3.1 0.1 4.7 0.4 1.5 0.3 2.9 0.6 4.3 1.1 1.3 0.5 2.6 1.1 3.8 1.8 1.1 0.6 2.2 1.4 3.2 2.3l-3.2 5.7z"/>
	<path class="st2" d="m262.1 60.2c2.6-0.1 5.3 0.4 7.7 1.3 2.3 0.8 4.3 2.1 6 3.8s3 3.8 3.9 6c0.9 2.6 1.4 5.3 1.4 8 0.1 2.8-0.4 5.5-1.4 8-0.9 2.3-2.2 4.3-3.9 6.1-1.7 1.7-3.8 3-6 3.8-2.4 0.9-5.1 1.4-7.7 1.3-2.6 0.1-5.3-0.4-7.8-1.3-2.3-0.9-4.3-2.1-6-3.8-1.8-1.7-3.1-3.8-4-6.1-0.9-2.6-1.4-5.3-1.4-8-0.1-2.7 0.4-5.4 1.4-8 0.9-2.3 2.2-4.3 4-6s3.8-3 6-3.8c2.5-0.9 5.1-1.4 7.8-1.3m0 30.2c2.6 0 4.5-0.9 5.6-2.7 1.2-1.8 1.8-4.6 1.8-8.3s-0.6-6.5-1.8-8.2c-1.2-1.8-3.1-2.7-5.6-2.7-2.6 0-4.6 0.9-5.8 2.7-1.3 1.8-1.8 4.5-1.8 8.2s0.6 6.5 1.8 8.3c1.3 1.8 3.2 2.7 5.8 2.7"/>
	<path class="st2" d="m324.1 68.5v18.5c0 0.8 0.2 1.5 0.6 2.1s1.1 0.9 1.8 0.9c0.4 0 0.7-0.1 1-0.1 0.3-0.1 0.5-0.2 0.8-0.3l0.6-0.3c0.2-0.1 0.4-0.1 0.6-0.1 0.3 0 0.6 0.1 0.8 0.3 0.3 0.2 0.4 0.4 0.6 0.8l3.4 5.3c-1.4 1.1-3.1 1.9-4.9 2.4-1.8 0.6-3.7 0.8-5.6 0.8-1.6 0-3.2-0.3-4.7-0.8-2.6-0.9-4.6-3-5.5-5.6-0.5-1.4-0.8-2.9-0.7-4.5v-19.4h-13.3v29.6h-11.2v-29.7l-2.4-0.5c-0.8-0.1-1.4-0.4-2-0.9-0.5-0.4-0.8-1.1-0.8-1.8v-4.4h5.3v-2.1c0-2 0.3-4 1-5.8 0.6-1.7 1.6-3.2 3-4.5s2.9-2.3 4.7-2.8c2-0.7 4.1-1.1 6.3-1 0.8 0 1.7 0.1 2.5 0.2s1.6 0.3 2.4 0.5l-0.2 5.5c0 0.6-0.4 1.3-0.9 1.6-0.3 0.2-0.6 0.3-0.9 0.4s-0.6 0.1-0.9 0.1c-0.9 0-1.8 0.1-2.6 0.3-0.7 0.2-1.4 0.5-1.9 1-0.6 0.6-0.9 1.2-1.2 1.9-0.3 1-0.4 2-0.4 3v1.8h14.3l2.3-9.2c0.3-1.1 1.1-1.8 2.4-1.8h5.8v10.9h9.3v7.7h-9.4z"/>
	<path class="st2" d="m360.9 88.5c1.5 0 3-0.3 4.4-0.8 1.3-0.5 2.4-1.3 3.3-2.3 0.9-1.1 1.6-2.3 2-3.7 0.5-1.6 0.8-3.3 0.7-5v-31.1h12.2v31.1c0.1 3-0.5 6-1.6 8.9-1 2.6-2.5 5-4.5 7s-4.5 3.5-7.1 4.5c-6.1 2.1-12.7 2.1-18.8 0-2.6-1-5.1-2.6-7.1-4.5-1.9-1.9-3.5-4.3-4.5-7-1.1-2.8-1.6-5.8-1.6-8.9v-31.1h12.2v31.1c0 1.7 0.2 3.3 0.7 5 0.4 1.4 1.1 2.6 2 3.7 0.9 1 2 1.8 3.3 2.3 1.4 0.5 2.9 0.8 4.4 0.8"/>
	<path class="st2" d="m400.7 64.8c0.7-0.7 1.4-1.3 2.3-1.9 0.8-0.6 1.6-1.1 2.4-1.4 0.9-0.4 1.9-0.7 2.8-0.9 1.1-0.3 2.2-0.4 3.3-0.4 1.9-0.1 3.7 0.3 5.4 1.1 1.5 0.7 2.9 1.7 4 2.9 1.1 1.3 1.9 2.8 2.4 4.5 0.6 1.8 0.8 3.8 0.8 5.6v23.7h-11.1v-23.7c0.1-1.5-0.4-3-1.3-4.3-0.9-1.1-2.3-1.6-3.7-1.5-1.2 0-2.4 0.3-3.5 0.8-1.1 0.6-2.2 1.3-3.1 2.1v26.7h-11.1v-37.3h6.9c1.3-0.1 2.4 0.7 2.8 1.9l0.7 2.1z"/>
	<path class="st2" d="m444 50.5c0 0.9-0.2 1.7-0.6 2.5s-0.9 1.4-1.4 2.1c-0.6 0.6-1.4 1.1-2.2 1.4-0.8 0.4-1.8 0.5-2.6 0.5-0.9 0-1.8-0.2-2.6-0.5s-1.5-0.8-2.1-1.4-1.1-1.3-1.4-2.1c-0.4-0.8-0.5-1.6-0.5-2.5s0.2-1.8 0.5-2.6 0.8-1.5 1.4-2.1 1.3-1.1 2.1-1.4 1.7-0.5 2.6-0.5 1.8 0.2 2.6 0.5 1.6 0.8 2.2 1.4 1.1 1.3 1.4 2.1c0.4 0.9 0.6 1.7 0.6 2.6m-1.1 47.6h-11.2v-37.3h11.2v37.3z"/>
	<rect class="st3" width="444" height="136.5"/>

</svg>
