<svg xmlns="http://www.w3.org/2000/svg" xmlns:xlink="http://www.w3.org/1999/xlink" version="1.1" x="0px" y="0px" viewBox="0 0 707.5 217.5" style="enable-background:new 0 0 707.5 217.5;" xml:space="preserve">
<style type="text/css">
	.logo-shape{fill:#44A9F8;}
	.logo-text{fill:#29394C;}
</style>
<title>SoftUni Logo</title>
<g>
	<g>
		<path class="logo-shape" d="M143.3,0L0,76.2l56,28.5v69.4l87.3,43.4l87.4-43.4v-69.3l56-28.5L143.3,0z M203.8,157.5l-60.4,30l0,0h0.1    l-60.5-30v-38.9l60.4,30.8l0,0l60.4-30.8V157.5z M143.3,119.1l-84-42.8l84-46.1l84,46.1L143.3,119.1z"/>
		<path class="logo-text" d="M374.9,89.7c-0.5,0.8-1.1,1.5-1.8,2.1c-0.7,0.5-1.6,0.7-2.4,0.7c-1,0-2-0.3-2.8-0.8l-3.4-1.9    c-1.4-0.7-2.9-1.4-4.4-1.9c-1.8-0.6-3.7-0.9-5.6-0.8c-3.6,0-6.3,0.8-8.1,2.3c-1.8,1.6-2.8,3.9-2.7,6.3c0,1.6,0.5,3.1,1.6,4.2    c1.2,1.2,2.6,2.2,4.2,2.9c1.9,0.9,4,1.6,6,2.2c2.2,0.7,4.5,1.4,6.9,2.2c2.3,0.8,4.6,1.8,6.9,2.9c2.2,1.1,4.2,2.5,6,4.3    c1.8,1.8,3.2,3.9,4.2,6.3c1.1,2.8,1.7,5.9,1.6,8.9c0,3.7-0.6,7.4-2,10.9c-1.3,3.3-3.3,6.3-5.8,8.8c-2.7,2.6-5.9,4.6-9.4,5.9    c-4.1,1.5-8.4,2.2-12.7,2.1c-2.7,0-5.3-0.3-8-0.8c-2.7-0.5-5.3-1.3-7.8-2.3c-2.5-0.9-4.9-2.1-7.1-3.5c-2.1-1.3-4.1-2.8-5.8-4.5    l5.7-9.1c0.5-0.7,1.1-1.2,1.8-1.6c0.7-0.4,1.6-0.7,2.4-0.7c1.2,0,2.4,0.4,3.5,1.1c1.2,0.7,2.5,1.5,4,2.4c1.6,1,3.3,1.8,5.1,2.4    c2.2,0.8,4.5,1.1,6.8,1.1c3.5,0,6.3-0.8,8.2-2.3c2-1.5,2.9-4,2.9-7.4c0.1-1.7-0.5-3.4-1.6-4.8c-1.2-1.3-2.6-2.3-4.2-3    c-1.9-0.9-3.9-1.6-5.9-2.1c-2.2-0.6-4.5-1.3-6.8-2c-2.3-0.8-4.6-1.7-6.8-2.8c-2.2-1.1-4.2-2.5-5.9-4.3c-1.8-1.9-3.3-4.2-4.2-6.7    c-1.2-3.1-1.7-6.5-1.6-9.8c0-3.2,0.6-6.3,1.9-9.2c1.3-3,3.2-5.7,5.6-8c2.6-2.4,5.7-4.3,9-5.6c3.9-1.5,8.1-2.2,12.2-2.1    c2.5,0,5,0.2,7.5,0.6c2.4,0.4,4.7,1,6.9,1.8c2.1,0.8,4.1,1.7,6,2.8c1.8,1,3.5,2.3,5.1,3.7L374.9,89.7z"/>
		<path class="logo-text" d="M417.7,95.9c4.2-0.1,8.4,0.7,12.3,2.1c3.6,1.3,6.8,3.4,9.6,6.1c2.7,2.7,4.8,6,6.2,9.6    c1.5,4.1,2.3,8.4,2.2,12.7c0.1,4.4-0.7,8.7-2.2,12.8c-1.4,3.6-3.5,6.9-6.2,9.7c-2.7,2.7-6,4.8-9.6,6.1c-3.9,1.5-8.1,2.2-12.3,2.1    c-4.2,0.1-8.5-0.7-12.4-2.1c-3.6-1.4-6.9-3.4-9.6-6.1c-2.8-2.7-4.9-6.1-6.3-9.7c-1.5-4.1-2.3-8.5-2.2-12.8    c-0.1-4.3,0.7-8.6,2.2-12.7c1.4-3.6,3.5-6.9,6.3-9.6c2.8-2.7,6-4.8,9.6-6.1C409.2,96.5,413.4,95.8,417.7,95.9z M417.7,144    c4.1,0,7.1-1.4,9-4.3c1.9-2.9,2.9-7.3,2.9-13.2c0-5.9-1-10.3-2.9-13.1c-1.9-2.9-4.9-4.3-9-4.3c-4.2,0-7.3,1.4-9.2,4.3    c-2,2.9-2.9,7.2-2.9,13.1c0,5.9,1,10.3,2.9,13.2C410.4,142.6,413.5,144,417.7,144L417.7,144z"/>
		<path class="logo-text" d="M516.4,109.1v29.6c0,1.2,0.3,2.4,1,3.4c0.7,0.9,1.8,1.4,2.9,1.4c0.6,0,1.1-0.1,1.6-0.2    c0.4-0.1,0.8-0.3,1.2-0.5c0.3-0.2,0.6-0.3,0.9-0.5c0.3-0.1,0.7-0.2,1-0.2c0.5,0,0.9,0.1,1.3,0.4c0.4,0.3,0.7,0.7,1,1.2l5.4,8.4    c-2.3,1.7-5,3-7.8,3.9c-2.9,0.9-5.9,1.3-8.9,1.3c-2.6,0-5.1-0.4-7.5-1.2c-4.2-1.5-7.4-4.8-8.8-9c-0.8-2.3-1.2-4.7-1.1-7.2v-30.7    h-21.2v47.2h-17.8V109l-3.9-0.8c-1.2-0.2-2.3-0.7-3.2-1.4c-0.8-0.7-1.3-1.8-1.2-2.9v-7h8.4v-3.4c0-3.2,0.5-6.3,1.6-9.2    c1-2.7,2.6-5.1,4.7-7.1c2.2-2,4.7-3.6,7.5-4.5c3.2-1.1,6.6-1.7,10-1.6c1.3,0,2.7,0.1,4,0.3c1.3,0.2,2.6,0.5,3.9,0.8l-0.3,8.7    c0,1-0.6,2-1.5,2.5c-0.4,0.3-0.9,0.4-1.4,0.6c-0.5,0.1-1,0.2-1.5,0.2c-1.4,0-2.8,0.1-4.2,0.5c-1.1,0.3-2.2,0.8-3.1,1.6    c-0.9,0.9-1.5,1.9-1.9,3.1c-0.5,1.6-0.7,3.2-0.6,4.8v2.8h22.8l3.6-14.6c0.5-1.8,1.8-2.8,3.9-2.8h9.3v17.4h14.8v12.2L516.4,109.1z"/>
		<path class="logo-text" d="M575,141c2.4,0,4.8-0.4,7-1.3c2-0.8,3.8-2.1,5.2-3.7c1.5-1.7,2.6-3.7,3.2-5.9c0.8-2.6,1.2-5.2,1.1-7.9V72.7    H611v49.5c0.1,4.8-0.8,9.6-2.5,14.1c-1.6,4.2-4,7.9-7.2,11.1c-3.2,3.2-7.1,5.6-11.3,7.2c-9.7,3.4-20.3,3.4-30,0    c-4.2-1.6-8.1-4.1-11.3-7.2c-3.1-3.1-5.6-6.9-7.1-11.1c-1.7-4.5-2.5-9.3-2.5-14.1V72.7h19.4v49.5c0,2.7,0.3,5.3,1.1,7.9    c0.7,2.2,1.8,4.2,3.2,5.9c1.4,1.6,3.2,2.9,5.2,3.7C570.3,140.6,572.6,141,575,141z"/>
		<path class="logo-text" d="M638.5,103.2c1.1-1.1,2.3-2.1,3.6-3c1.2-0.9,2.5-1.7,3.9-2.3c1.5-0.7,3-1.1,4.5-1.5c1.7-0.4,3.5-0.6,5.3-0.6    c3-0.1,5.9,0.5,8.6,1.7c2.4,1.1,4.6,2.7,6.3,4.7c1.8,2.1,3.1,4.5,3.9,7.2c0.9,2.9,1.3,6,1.3,9v37.8h-17.8v-37.8    c0.1-2.4-0.6-4.8-2-6.8c-1.5-1.7-3.7-2.6-5.9-2.4c-1.9,0-3.8,0.4-5.5,1.2c-1.8,0.9-3.5,2-5,3.4v42.5H622V96.8h11    c2-0.2,3.8,1.1,4.4,3L638.5,103.2z"/>
		<path class="logo-text" d="M707.5,80.5c0,1.4-0.3,2.7-0.9,4c-0.6,1.2-1.4,2.3-2.3,3.3c-1,0.9-2.2,1.7-3.5,2.2c-1.3,0.6-2.8,0.8-4.2,0.8    c-1.4,0-2.8-0.3-4.1-0.8c-1.2-0.5-2.4-1.3-3.4-2.2c-1-0.9-1.8-2-2.3-3.3c-0.6-1.3-0.8-2.6-0.8-4c0-1.4,0.3-2.8,0.8-4.1    c0.5-1.2,1.3-2.4,2.3-3.3c1-1,2.1-1.7,3.4-2.2c1.3-0.5,2.7-0.8,4.1-0.8c1.4,0,2.9,0.3,4.2,0.8c1.3,0.5,2.5,1.3,3.5,2.2    c1,0.9,1.8,2.1,2.3,3.3C707.2,77.7,707.5,79.1,707.5,80.5z M705.7,96.8v59.5h-17.8V96.8H705.7z"/>
	</g>
</g>
</svg>
