<svg xmlns="http://www.w3.org/2000/svg" width="170" height="203" fill="none" viewBox="0 0 170 203">
    <g fill="#fff" opacity=".08">
        <path d="M169.651 3.488c0-2.093-1.396-3.488-3.491-3.488L3.49.349c-1.046 0-1.745.349-2.443 1.046C.35 2.093 0 2.79 0 3.837l.35 195.675c0 2.093 1.395 3.488 3.49 3.488l162.669-.349c1.047 0 1.746-.349 2.444-1.046.698-.698 1.047-1.395 1.047-2.442l-.349-195.675zM7.331 196.024l-.35-188.7 155.688-.348.349 188.699-155.687.349z"/>
        <path d="M25.133 78.13l119.733-.348c1.048 0 1.746-.349 2.444-1.047.698-.697 1.047-1.395 1.047-2.441V20.23c0-2.093-1.396-3.488-3.491-3.488l-119.733.35c-1.047 0-2.094.348-2.443 1.046-.698.697-1.047 1.395-1.047 2.441v54.064c0 2.092 1.396 3.488 3.49 3.488zm115.894-54.412v47.088l-112.403.349V24.067l112.403-.349zM25.133 115.452H45.73c1.047 0 1.745-.349 2.443-1.047.699-.697 1.048-1.395 1.048-2.441V89.99c0-2.093-1.397-3.488-3.491-3.488H25.133c-1.047 0-1.745.349-2.443 1.046-.698.698-1.047 1.395-1.047 2.442v21.974c0 1.744 1.396 3.488 3.49 3.488zm17.105-21.974v14.998H28.624V93.478h13.614zM25.133 149.983H45.73c1.047 0 1.745-.349 2.443-1.047.699-.697 1.048-1.395 1.048-2.441v-21.974c0-2.093-1.397-3.488-3.491-3.488H25.133c-1.047 0-1.745.348-2.443 1.046-.698.698-1.047 1.395-1.047 2.442v21.974c0 2.093 1.745 3.488 3.49 3.488zm17.105-21.626v14.999H28.624v-14.999h13.614zM57.947 115.103h20.595c1.047 0 1.745-.349 2.444-1.046.698-.698 1.047-1.396 1.047-2.442V89.641c0-2.093-1.397-3.488-3.49-3.488H57.946c-1.048 0-1.746.349-2.444 1.046-.698.698-1.047 1.395-1.047 2.442v21.974c0 2.093 1.396 3.488 3.49 3.488zm16.755-21.625v14.998H61.088V93.478h13.614zM57.947 149.983h20.595c1.047 0 1.745-.349 2.444-1.047.698-.697 1.047-1.395 1.047-2.441v-21.974c0-2.093-1.397-3.488-3.49-3.488H57.946c-1.048 0-1.746.348-2.444 1.046-.698.698-1.047 1.395-1.047 2.442v21.974c0 2.093 1.396 3.488 3.49 3.488zm16.755-21.974v14.998H61.088v-14.998h13.614zM90.41 115.103h20.596c1.047 0 1.746-.349 2.444-1.046.698-.698 1.047-1.396 1.047-2.442V89.641c0-2.093-1.396-3.488-3.491-3.488H90.411c-1.047 0-1.746.349-2.444 1.046-.698.698-1.047 1.395-1.047 2.442v21.974c0 2.093 1.745 3.488 3.49 3.488zm17.105-21.974v14.998H93.901V93.129h13.614zM122.177 115.103h20.595c1.047 0 1.745-.349 2.444-1.046.698-.698 1.047-1.396 1.047-2.442V89.641c0-2.093-1.397-3.488-3.491-3.488h-20.595c-1.048 0-1.746.349-2.444 1.046-.698.698-1.047 1.395-1.047 2.442v21.974c0 2.093 1.745 3.488 3.491 3.488zm17.104-21.974v14.998h-13.614V93.129h13.614zM90.41 149.983h20.596c1.047 0 1.746-.349 2.444-1.047.698-.697 1.047-1.395 1.047-2.441v-21.974c0-2.093-1.396-3.488-3.491-3.488H90.411c-1.047 0-1.746.348-2.444 1.046-.698.698-1.047 1.395-1.047 2.442v21.974c0 2.093 1.745 3.488 3.49 3.488zm17.105-21.974v14.998H93.901v-14.998h13.614zM45.729 155.912H25.133c-1.047 0-1.745.349-2.443 1.047-.698.697-1.047 1.395-1.047 2.441v21.975c0 2.092 1.396 3.488 3.49 3.488H45.73c1.047 0 1.745-.349 2.443-1.047.699-.697 1.048-1.395 1.048-2.441V159.4c0-1.744-1.746-3.488-3.491-3.488zm-17.105 21.975v-14.999h13.614v14.999H28.624zM78.542 155.912H57.947c-1.048 0-1.746.349-2.444 1.047-.698.697-1.047 1.395-1.047 2.441v21.975c0 2.092 1.396 3.488 3.49 3.488h20.596c1.047 0 1.745-.349 2.444-1.047.698-.697 1.047-1.395 1.047-2.441V159.4c0-1.744-1.746-3.488-3.49-3.488zm-17.105 21.975v-14.999h13.614v14.999H61.437zM111.006 155.912H90.411c-1.047 0-1.746.349-2.444 1.047-.698.697-1.047 1.395-1.047 2.441v21.975c0 2.092 1.396 3.488 3.49 3.488h20.596c1.047 0 1.746-.349 2.444-1.047.698-.697 1.047-1.395 1.047-2.441V159.4c0-2.092-1.396-3.488-3.491-3.488zm-16.755 21.975v-14.999h13.613v14.999H94.25zM144.866 121.033h-22.689c-1.048 0-1.746.348-2.444 1.046-.698.698-1.047 1.395-1.047 2.442v56.854c0 2.092 1.396 3.488 3.491 3.488h22.689c1.048 0 1.746-.349 2.444-1.047.698-.697 1.047-1.395 1.047-2.441v-56.854c0-2.093-1.745-3.488-3.491-3.488zm-19.199 56.854v-49.878h15.709v49.878h-15.709z"/>
    </g>
</svg>
