<?xml version="1.0" encoding="utf-8"?>
<!-- Generator: Adobe Illustrator 22.0.1, SVG Export Plug-In . SVG Version: 6.00 Build 0)  -->
<svg version="1.1" id="Layer_1" xmlns="http://www.w3.org/2000/svg" xmlns:xlink="http://www.w3.org/1999/xlink" x="0px" y="0px"
	 viewBox="0 0 678.5 217.9" style="enable-background:new 0 0 678.5 217.9;" xml:space="preserve">
<style type="text/css">
	.st0{fill:#9B5DC6;}
	.st1{fill:#54546D;}
</style>
<title>SoftUniCreative_Logo_Oneline</title>
<path class="st0" d="M275.4,139.8c-2.2-6.7-8.5-12.1-15.9-12.6l6.1-39.9l21.5-11L143.6,0L0,76.4L56.1,105v69.5l87.5,43.5l87.5-43.5
	V105l18.1-9.2l5.2,31.9c-1.7,0.4-3.4,1.1-4.9,2c-8.3,4.9-11.1,15.7-6.2,24.1c0.9,1.8,1.3,3.8,1.3,5.8c-0.1,4.6-2.5,8.9-6.5,11.3
	c3,1.7,6.4,2.9,9.8,3.3c0.4,0.1,0.9,0.1,1.3,0.2c0.7,0.1,1.4,0.1,2.1,0.1c2.4,0,4.8-0.3,7.1-1c13.6-3.9,21.4-18.1,17.5-31.7
	C275.9,141,275.7,140.4,275.4,139.8z M143.7,187.7h-0.2l-60.5-30v-39l60.5,30.9l60.5-30.9l0,39L143.7,187.7z M143.6,119.3L59.5,76.4
	l84.1-46.1l84.1,46.1L143.6,119.3z"/>
<g>
	<g>
		<path class="st1" d="M367.8,46.9c-0.4,0.7-0.9,1.2-1.5,1.7c-0.6,0.4-1.3,0.6-2,0.6c-0.8,0-1.6-0.3-2.3-0.7l-2.8-1.5
			c-1.2-0.6-2.4-1.1-3.6-1.5c-1.5-0.5-3-0.7-4.6-0.7c-3,0-5.2,0.6-6.6,1.9c-1.5,1.3-2.3,3.2-2.2,5.1c0,1.3,0.4,2.5,1.3,3.4
			c1,1,2.2,1.8,3.5,2.3c1.6,0.7,3.2,1.3,4.9,1.8c1.8,0.5,3.7,1.2,5.6,1.8c1.9,0.7,3.8,1.5,5.6,2.4c1.8,0.9,3.5,2,4.9,3.5
			c1.5,1.5,2.6,3.2,3.5,5.1c0.9,2.3,1.4,4.8,1.3,7.3c0,3.1-0.6,6.1-1.7,8.9c-1.1,2.7-2.7,5.2-4.8,7.2c-2.2,2.1-4.8,3.8-7.7,4.8
			c-3.3,1.2-6.9,1.8-10.4,1.8c-2.2,0-4.4-0.2-6.5-0.7c-2.2-0.4-4.3-1.1-6.4-1.9c-2-0.8-4-1.7-5.8-2.8c-1.7-1-3.3-2.3-4.7-3.7
			l4.7-7.4c0.4-0.5,0.9-1,1.5-1.3c0.6-0.4,1.3-0.5,2-0.5c1,0,2,0.3,2.8,0.9c1,0.6,2,1.3,3.2,2c1.3,0.8,2.7,1.5,4.2,2
			c1.8,0.6,3.7,0.9,5.5,0.9c2.4,0.1,4.8-0.5,6.7-1.9c1.6-1.3,2.4-3.3,2.4-6c0.1-1.4-0.4-2.8-1.3-3.9c-0.9-1.1-2.1-2-3.4-2.6
			c-1.6-0.7-3.2-1.3-4.9-1.7c-1.8-0.5-3.7-1.1-5.6-1.7c-1.9-0.6-3.8-1.4-5.6-2.3c-1.8-0.9-3.5-2.1-4.9-3.5c-1.5-1.6-2.7-3.4-3.5-5.5
			c-0.9-2.6-1.4-5.3-1.3-8.1c0-2.6,0.5-5.2,1.5-7.6c1.1-2.5,2.6-4.7,4.6-6.5c2.1-2,4.6-3.5,7.4-4.6c3.2-1.2,6.6-1.8,10-1.7
			c2.1,0,4.1,0.2,6.1,0.5c1.9,0.3,3.8,0.8,5.7,1.5c1.7,0.6,3.4,1.4,5,2.3c1.5,0.8,2.9,1.8,4.2,3L367.8,46.9z"/>
	</g>
	<g>
		<path class="st1" d="M402.8,52c3.4,0,6.9,0.5,10.1,1.7c2.9,1.1,5.6,2.8,7.8,5c2.2,2.2,4,4.9,5.1,7.9c1.2,3.3,1.9,6.9,1.8,10.4
			c0.1,3.6-0.6,7.1-1.8,10.5c-1.1,3-2.8,5.7-5.1,7.9c-2.2,2.2-4.9,3.9-7.8,5c-3.2,1.2-6.7,1.8-10.1,1.8c-3.5,0-6.9-0.6-10.2-1.8
			c-2.9-1.1-5.6-2.8-7.9-5c-2.3-2.2-4-5-5.1-7.9c-1.2-3.4-1.9-6.9-1.8-10.5c-0.1-3.5,0.6-7.1,1.8-10.4c1.1-3,2.9-5.6,5.1-7.9
			c2.3-2.2,4.9-3.9,7.9-5C395.9,52.5,399.3,51.9,402.8,52z M402.8,91.4c3.3,0,5.8-1.2,7.4-3.6s2.4-6,2.4-10.8
			c0-4.8-0.8-8.4-2.4-10.8c-1.6-2.4-4-3.5-7.4-3.5c-3.4,0-6,1.2-7.6,3.5c-1.6,2.3-2.4,5.9-2.4,10.8c0,4.8,0.8,8.4,2.4,10.8
			S399.3,91.3,402.8,91.4z"/>
	</g>
	<g>
		<path class="st1" d="M483.6,62.8v24.2c0,1,0.2,2,0.8,2.8c0.6,0.7,1.4,1.2,2.4,1.1c0.5,0,0.9,0,1.3-0.2c0.3-0.1,0.6-0.2,0.9-0.4
			l0.8-0.4c0.3-0.1,0.5-0.2,0.8-0.2c0.4,0,0.8,0.1,1.1,0.3c0.3,0.3,0.6,0.6,0.8,1L497,98c-1.9,1.4-4.1,2.5-6.3,3.2
			c-2.4,0.7-4.8,1.1-7.3,1.1c-2.1,0-4.2-0.3-6.1-1c-3.4-1.2-6.1-4-7.2-7.4c-0.6-1.9-1-3.9-0.9-5.9V62.8h-17.3v38.7h-14.6V62.7
			L434,62c-1-0.2-1.9-0.6-2.6-1.2c-0.7-0.6-1.1-1.5-1-2.3v-5.7h6.9V50c0-2.6,0.4-5.1,1.3-7.6c0.8-2.2,2.2-4.2,3.9-5.8
			c1.8-1.6,3.8-2.9,6.1-3.7c3.7-1.2,7.6-1.6,11.5-1.1c1.1,0.2,2.1,0.4,3.1,0.7l-0.3,7.1c0,0.8-0.5,1.6-1.3,2
			c-0.4,0.2-0.7,0.4-1.1,0.5c-0.4,0.1-0.8,0.1-1.2,0.1c-1.2,0-2.3,0.1-3.4,0.4c-1,0.2-1.8,0.7-2.5,1.4c-0.7,0.7-1.2,1.6-1.5,2.5
			c-0.4,1.3-0.6,2.6-0.5,4v2.3h18.7l2.9-12c0.3-1.5,1.7-2.5,3.2-2.3h7.6v14.2h12.1v10L483.6,62.8z"/>
	</g>
	<g>
		<path class="st1" d="M531.6,88.9c2,0,3.9-0.3,5.7-1.1c1.6-0.7,3.1-1.7,4.3-3c1.2-1.4,2.1-3,2.6-4.8c0.6-2.1,1-4.3,0.9-6.5V33H561
			v40.5c0.1,3.9-0.6,7.9-2,11.6c-1.3,3.4-3.3,6.5-5.8,9.1c-2.6,2.6-5.8,4.6-9.3,5.9c-7.9,2.8-16.6,2.8-24.6,0
			c-3.5-1.3-6.7-3.3-9.3-5.9c-2.6-2.6-4.5-5.7-5.8-9.1c-1.4-3.7-2.1-7.6-2-11.6V33H518v40.5c0,2.2,0.3,4.4,0.9,6.5
			c0.5,1.8,1.4,3.4,2.7,4.8c1.2,1.3,2.6,2.4,4.3,3.1C527.6,88.5,529.6,88.9,531.6,88.9z"/>
	</g>
	<g>
		<path class="st1" d="M583.5,58c0.9-0.9,1.9-1.7,2.9-2.4c1-0.7,2.1-1.4,3.2-1.9c1.2-0.5,2.4-0.9,3.7-1.2c1.4-0.3,2.9-0.5,4.3-0.5
			c2.4,0,4.8,0.4,7.1,1.4c2,0.9,3.8,2.2,5.2,3.8c1.4,1.7,2.5,3.7,3.2,5.9c0.7,2.4,1.1,4.9,1.1,7.4v31h-14.6v-31c0.1-2-0.4-4-1.6-5.6
			c-1.2-1.4-3-2.1-4.8-2c-1.6,0-3.1,0.3-4.5,1c-1.5,0.7-2.8,1.7-4.1,2.8v34.8H570V52.7h9c1.6-0.1,3.1,0.9,3.6,2.4L583.5,58z"/>
		<path class="st1" d="M640,39.4c0,1.1-0.2,2.2-0.7,3.3c-0.5,1-1.1,1.9-1.9,2.7c-0.8,0.8-1.8,1.4-2.8,1.8c-1.1,0.5-2.3,0.7-3.5,0.7
			c-1.1,0-2.3-0.2-3.3-0.7c-1-0.4-1.9-1.1-2.7-1.8c-0.8-0.8-1.4-1.7-1.9-2.7c-0.5-1-0.7-2.1-0.7-3.3c0-1.1,0.2-2.3,0.7-3.3
			c0.4-1,1.1-2,1.9-2.7c0.8-0.8,1.7-1.4,2.8-1.8c1.1-0.4,2.2-0.7,3.3-0.7c1.2,0,2.4,0.2,3.5,0.7c1.1,0.4,2,1,2.8,1.8
			c0.8,0.8,1.4,1.7,1.9,2.7C639.8,37.1,640,38.2,640,39.4z M638.5,52.7v48.7h-14.6V52.7H638.5z"/>
	</g>
	<g>
		<path class="st1" d="M376.1,168.7c0.4,0,0.8,0.1,1.1,0.2c0.4,0.2,0.8,0.4,1.1,0.7l6.3,6.6c-2.7,3.6-6.3,6.4-10.4,8.1
			c-4.7,1.9-9.7,2.9-14.7,2.8c-4.8,0.1-9.6-0.8-14-2.6c-4-1.7-7.5-4.2-10.5-7.3c-2.9-3.2-5.2-7-6.6-11.1c-1.6-4.5-2.3-9.2-2.3-13.9
			c-0.1-4.8,0.8-9.6,2.5-14.1c1.6-4.1,3.9-7.9,7-11.1c3.1-3.1,6.7-5.6,10.8-7.2c4.4-1.8,9.1-2.6,13.9-2.6c2.4,0,4.9,0.2,7.3,0.7
			c2.2,0.4,4.3,1.1,6.4,1.9c1.9,0.8,3.7,1.7,5.5,2.9c1.6,1.1,3.1,2.3,4.4,3.7l-5.4,7.2c-0.4,0.4-0.8,0.9-1.2,1.2
			c-0.6,0.4-1.3,0.6-2,0.5c-0.6,0-1.1-0.1-1.6-0.4c-0.5-0.3-1.1-0.6-1.6-0.9l-1.9-1.2c-0.8-0.5-1.6-0.9-2.4-1.2
			c-1.1-0.4-2.1-0.7-3.2-0.9c-1.4-0.3-2.9-0.4-4.3-0.4c-2.5,0-4.9,0.5-7.2,1.5c-2.2,1-4.1,2.4-5.6,4.3c-1.7,2-2.9,4.4-3.7,6.9
			c-0.9,3-1.3,6.1-1.3,9.3c-0.1,3.2,0.4,6.3,1.4,9.4c0.8,2.5,2.2,4.9,3.9,6.9c1.6,1.8,3.5,3.3,5.8,4.3c2.2,1,4.6,1.5,7,1.5
			c1.3,0,2.6-0.1,4-0.2c1.1-0.1,2.2-0.4,3.3-0.7c1-0.3,2-0.8,2.9-1.3c1-0.6,1.9-1.3,2.8-2.1c0.4-0.3,0.8-0.6,1.2-0.8
			C375.1,168.8,375.6,168.7,376.1,168.7z"/>
	</g>
	<g>
		<path class="st1" d="M403.5,145.2c1.3-2.4,3.1-4.5,5.2-6.2c1.9-1.5,4.3-2.3,6.7-2.3c1.9-0.1,3.8,0.5,5.4,1.6l-0.9,10.7
			c-0.1,0.6-0.4,1.1-0.8,1.4c-0.4,0.3-1,0.4-1.5,0.4c-0.3,0-0.6,0-1,0l-1.3-0.1l-1.3-0.1c-0.4,0-0.8-0.1-1.2-0.1
			c-1.9-0.1-3.7,0.5-5.1,1.7c-1.4,1.3-2.5,2.9-3.2,4.7v29.6h-14.5v-48.8h8.6c0.6,0,1.2,0.1,1.8,0.2c0.4,0.1,0.9,0.3,1.2,0.6
			c0.3,0.3,0.6,0.6,0.8,1.1c0.2,0.5,0.3,1.1,0.5,1.6L403.5,145.2z"/>
	</g>
	<g>
		<path class="st1" d="M436.8,164.6c0.5,4.1,1.7,7,3.7,8.9c2.1,1.9,4.9,2.9,7.8,2.8c1.5,0,3-0.2,4.4-0.6c1.1-0.4,2.2-0.8,3.3-1.4
			l2.6-1.4c0.8-0.4,1.6-0.6,2.5-0.6c1-0.1,2,0.4,2.6,1.3l4.2,5.2c-1.4,1.6-3,3-4.9,4.2c-1.7,1.1-3.5,1.9-5.4,2.5
			c-1.8,0.6-3.6,1-5.5,1.3c-1.7,0.2-3.5,0.3-5.2,0.4c-3.3,0-6.5-0.5-9.6-1.7c-2.9-1.1-5.6-2.8-7.8-5c-2.3-2.3-4.1-5.1-5.3-8.2
			c-1.4-3.6-2-7.4-1.9-11.3c0-3.2,0.5-6.3,1.7-9.3c2.2-5.8,6.6-10.5,12.4-12.9c6-2.4,12.7-2.6,18.9-0.4c2.6,0.9,4.9,2.4,6.9,4.4
			c2,2,3.5,4.4,4.5,7c1.1,3,1.7,6.2,1.6,9.4c0,0.9,0,1.8-0.1,2.7c-0.1,0.6-0.2,1.1-0.5,1.6c-0.2,0.4-0.6,0.7-1,0.8
			c-0.5,0.2-1.1,0.3-1.6,0.2L436.8,164.6z M455.2,156.2c0-1.1-0.2-2.3-0.5-3.4c-0.3-1.1-0.8-2.1-1.5-2.9c-0.7-0.9-1.6-1.6-2.6-2.1
			c-1.3-0.6-2.6-0.8-4-0.8c-2.4-0.1-4.7,0.7-6.5,2.4c-1.7,1.9-2.8,4.3-3.1,6.8L455.2,156.2z"/>
	</g>
	<g>
		<path class="st1" d="M474.4,144.4c2.9-2.5,6.2-4.5,9.8-5.8c3.7-1.3,7.6-1.9,11.5-1.9c2.7,0,5.5,0.4,8,1.4c2.3,0.9,4.3,2.3,6,4
			c1.7,1.7,3,3.8,3.8,6.1c0.9,2.5,1.3,5.1,1.3,7.7v30.4h-6.7c-1.1,0.1-2.1-0.1-3.1-0.6c-0.8-0.6-1.5-1.4-1.8-2.4l-1-2.7
			c-1.2,1-2.4,1.9-3.5,2.7c-1.1,0.8-2.3,1.4-3.5,2c-1.2,0.6-2.5,1-3.9,1.2c-1.5,0.3-3,0.4-4.5,0.4c-2.1,0-4.1-0.3-6.1-0.9
			c-1.7-0.5-3.3-1.4-4.6-2.6c-1.3-1.2-2.3-2.6-2.9-4.2c-0.7-1.8-1-3.8-1-5.8c0-1.9,0.5-3.7,1.3-5.3c1.1-2,2.6-3.7,4.6-4.9
			c2.7-1.7,5.6-3,8.7-3.7c4.5-1.1,9.1-1.7,13.8-1.7v-2.1c0-2.8-0.6-4.9-1.8-6.2c-1.3-1.3-3.1-2-5-1.9c-1.4,0-2.9,0.1-4.2,0.6
			c-1,0.3-2,0.8-2.9,1.3c-0.9,0.5-1.7,0.9-2.5,1.3c-0.9,0.4-1.9,0.6-2.9,0.6c-0.9,0-1.8-0.2-2.5-0.8c-0.7-0.5-1.3-1.1-1.7-1.8
			L474.4,144.4z M500.6,166.6c-2.4,0.1-4.8,0.3-7.2,0.8c-1.5,0.3-3,0.7-4.5,1.4c-0.9,0.4-1.7,1.1-2.3,1.9c-0.4,0.7-0.6,1.5-0.6,2.4
			c-0.1,1.3,0.4,2.6,1.4,3.5c1.2,0.7,2.6,1.1,4,1c1.7,0,3.4-0.3,4.9-1c1.6-0.8,3-1.9,4.3-3.2L500.6,166.6z"/>
	</g>
	<g>
		<path class="st1" d="M576,186.4h-14.6v-38.7h-20.4v24.2c0,1,0.2,2,0.8,2.8c0.6,0.7,1.4,1.2,2.4,1.1c0.5,0,0.9,0,1.3-0.2
			c0.3-0.1,0.6-0.2,0.9-0.4l0.8-0.4c0.3-0.1,0.5-0.2,0.8-0.2c0.4,0,0.8,0.1,1.1,0.3c0.3,0.3,0.6,0.6,0.8,1l4.4,6.9
			c-1.9,1.4-4.1,2.5-6.3,3.2c-2.4,0.7-4.8,1.1-7.3,1.1c-2.1,0-4.2-0.3-6.1-1c-3.4-1.2-6.1-3.9-7.2-7.4c-0.6-1.9-1-3.9-0.9-5.9v-25.2
			h-4.1c-1.5,0.1-2.7-1.1-2.7-2.5c0-0.1,0-0.2,0-0.3v-5.7l7.8-1.6l2.9-11.8c0.3-1.5,1.7-2.4,3.2-2.3h7.6v14.2H576V186.4z M578,124.3
			c0,1.1-0.2,2.3-0.7,3.3c-0.5,1-1.1,1.9-1.9,2.7c-1.7,1.6-4,2.5-6.3,2.5c-1.1,0-2.3-0.2-3.3-0.7c-1-0.4-2-1-2.8-1.8
			c-0.8-0.8-1.4-1.7-1.9-2.7c-0.5-1-0.7-2.2-0.7-3.3c0-2.3,0.9-4.4,2.6-6c0.8-0.8,1.7-1.4,2.8-1.8c1.1-0.5,2.2-0.7,3.3-0.7
			c1.2,0,2.4,0.2,3.5,0.7c1,0.4,2,1.1,2.8,1.8c0.8,0.8,1.5,1.7,1.9,2.7C577.8,122,578,123.2,578,124.3L578,124.3z"/>
	</g>
	<g>
		<path class="st1" d="M632.1,137.7l-18.9,48.7H600l-18.9-48.7h12.1c0.9,0,1.8,0.2,2.6,0.7c0.7,0.4,1.2,1.1,1.4,1.8L604,162
			c0.6,1.8,1.1,3.5,1.6,5.2c0.5,1.7,0.9,3.4,1.2,5.1c0.7-3.5,1.7-6.9,2.9-10.3l7-21.8c0.3-0.7,0.8-1.4,1.4-1.8
			c0.7-0.5,1.6-0.7,2.4-0.7L632.1,137.7z"/>
	</g>
	<g>
		<path class="st1" d="M647.2,164.6c0.5,4.1,1.7,7,3.7,8.9c2.1,1.9,4.9,2.9,7.8,2.8c1.5,0,3-0.2,4.4-0.6c1.1-0.4,2.2-0.8,3.3-1.4
			l2.6-1.4c0.8-0.4,1.6-0.6,2.5-0.6c1-0.1,2,0.4,2.6,1.3l4.2,5.2c-1.4,1.6-3,3-4.9,4.2c-1.7,1.1-3.5,1.9-5.4,2.5
			c-1.8,0.6-3.6,1-5.5,1.3c-1.7,0.2-3.5,0.3-5.2,0.4c-3.3,0-6.5-0.5-9.6-1.7c-2.9-1.1-5.6-2.8-7.8-5c-2.3-2.3-4.1-5.1-5.3-8.2
			c-1.3-3.6-2-7.4-1.9-11.3c0-3.2,0.6-6.3,1.7-9.3c2.2-5.8,6.6-10.5,12.3-12.9c6-2.4,12.7-2.6,18.9-0.4c2.6,0.9,4.9,2.4,6.9,4.4
			c2,2,3.5,4.4,4.5,7c1.1,3,1.7,6.2,1.6,9.4c0,0.9,0,1.8-0.1,2.7c-0.1,0.6-0.2,1.1-0.5,1.6c-0.2,0.4-0.6,0.7-1,0.8
			c-0.5,0.2-1.1,0.3-1.6,0.2L647.2,164.6z M665.5,156.2c0-1.1-0.2-2.3-0.5-3.4c-0.3-1.1-0.8-2.1-1.5-2.9c-0.7-0.9-1.6-1.6-2.7-2.1
			c-1.3-0.6-2.6-0.8-4-0.8c-2.4-0.1-4.7,0.7-6.5,2.4c-1.7,1.9-2.8,4.3-3.1,6.8L665.5,156.2z"/>
	</g>
</g>
</svg>
